# xmcd
#
# Track frame offsets:
#	150
#	19909
#	36180
#	53958
#	75192
#	90150
#	110767
#	136996
#	154350
#	169295
#	187637
#	207355
#	223656
#	240751
#	256482
#	276110
#	292556
#
# Disc length: 4144 seconds
#
# Revision: 0
# Processed by: cddbd v1.5.2PL0 Copyright (c) Steve Scherf et al.
# Submitted via: EasyCDDAExtractor 15.3.0.1
#
DISCID=dd102e11
DTITLE=Ednita Nazario - Soy Mujer
DYEAR=2014
DGENRE=Latin
TTITLE0=Tu, Sin Mi (Version Acustica)
TTITLE1=No Te Mentia
TTITLE2=A Que No Te Vas
TTITLE3=Vengada
TTITLE4=Soy Como Soy
TTITLE5=Mas Mala Que Tu
TTITLE6=Sobrevivo
TTITLE7=Para El Peor Amante
TTITLE8=Cansada De Estar Cansada
TTITLE9=El Privilegio De Dar
TTITLE10=Te Quedaras Hundido
TTITLE11=Despues De Ti
TTITLE12=Me Voy
TTITLE13=A Que Pides Mas
TTITLE14=Aprendere (Version Acustica)
TTITLE15=A Mi Si Que No
TTITLE16=Alguien Mas
EXTD=
EXTT0=
EXTT1=
EXTT2=
EXTT3=
EXTT4=
EXTT5=
EXTT6=
EXTT7=
EXTT8=
EXTT9=
EXTT10=
EXTT11=
EXTT12=
EXTT13=
EXTT14=
EXTT15=
EXTT16=
PLAYORDER=
